<?xml version="1.0" standalone="no"?><!DOCTYPE svg PUBLIC "-//W3C//DTD SVG 1.1//EN" "http://www.w3.org/Graphics/SVG/1.1/DTD/svg11.dtd"><svg t="1613923220503" class="icon" viewBox="0 0 1024 1024" version="1.1" xmlns="http://www.w3.org/2000/svg" p-id="1558" width="888" height="888" xmlns:xlink="http://www.w3.org/1999/xlink"><defs><style type="text/css"></style></defs><path d="M885.76 128h-113.92c-8.96 0-16.64-7.68-16.64-16.64s7.68-16.64 16.64-16.64h113.92c8.96 0 16.64 7.68 16.64 16.64s-7.68 16.64-16.64 16.64z" fill="#7F0D0D" p-id="1559"></path><path d="M642.56 801.28C761.6 682.24 807.68 500.48 691.2 384s-298.24-70.4-417.28 48.64c-96 96-106.24 212.48-60.16 313.6 7.68 15.36 8.96 33.28 7.68 51.2-2.56 19.2 1.28 34.56 11.52 44.8 10.24 10.24 25.6 14.08 44.8 11.52 17.92-2.56 35.84 0 51.2 7.68 101.12 44.8 217.6 34.56 313.6-60.16zM529.92 345.6c-99.84 0-180.48-107.52-180.48-107.52s80.64-107.52 180.48-107.52 180.48 107.52 180.48 107.52S629.76 345.6 529.92 345.6z" fill="#FFFFFF" p-id="1560"></path><path d="M710.4 238.08L806.4 217.6" fill="#00C19C" p-id="1561"></path><path d="M710.4 254.72c-7.68 0-14.08-5.12-15.36-12.8-1.28-8.96 3.84-17.92 12.8-19.2l96-20.48c8.96-2.56 17.92 3.84 19.2 12.8 1.28 8.96-3.84 17.92-12.8 19.2l-96 20.48c-1.28-1.28-2.56 0-3.84 0z" fill="#7F0D0D" p-id="1562"></path><path d="M693.76 852.48C812.8 733.44 858.88 551.68 742.4 435.2s-298.24-70.4-417.28 48.64c-96 96-106.24 212.48-60.16 313.6 7.68 15.36 8.96 33.28 7.68 51.2-2.56 19.2 1.28 34.56 11.52 44.8 10.24 10.24 25.6 14.08 44.8 11.52 17.92-2.56 35.84 0 51.2 7.68 101.12 46.08 218.88 35.84 313.6-60.16z" fill="#FFF37A" p-id="1563"></path><path d="M445.44 903.68c-40.96 0-83.2-8.96-124.16-28.16-12.8-5.12-26.88-7.68-42.24-6.4-32 3.84-49.92-6.4-58.88-15.36-8.96-8.96-19.2-26.88-15.36-58.88 1.28-15.36 0-29.44-6.4-42.24-52.48-117.76-29.44-239.36 64-331.52 117.76-117.76 312.32-175.36 439.04-48.64 126.72 126.72 69.12 321.28-48.64 439.04-58.88 61.44-131.84 92.16-207.36 92.16z m-154.88-66.56c15.36 0 30.72 2.56 44.8 8.96 104.96 47.36 212.48 25.6 295.68-57.6 107.52-107.52 161.28-281.6 48.64-394.24s-286.72-58.88-394.24 48.64c-83.2 83.2-103.68 190.72-57.6 295.68 7.68 17.92 11.52 38.4 8.96 60.16-1.28 10.24-1.28 24.32 6.4 32 7.68 7.68 21.76 7.68 32 6.4h15.36z m352-35.84z" fill="#7F0D0D" p-id="1564"></path><path d="M582.4 398.08c-99.84 0-180.48-107.52-180.48-107.52s80.64-107.52 180.48-107.52 180.48 107.52 180.48 107.52-80.64 107.52-180.48 107.52z" fill="#7cba59" p-id="1565" data-spm-anchor-id="a313x.7781069.0.i0" class="selected"></path><path d="M529.92 362.24c-106.24 0-189.44-110.08-193.28-113.92-3.84-5.12-3.84-14.08 0-19.2 3.84-5.12 87.04-113.92 193.28-113.92s189.44 110.08 193.28 113.92c3.84 5.12 3.84 14.08 0 19.2-2.56 3.84-85.76 113.92-193.28 113.92zM371.2 238.08c21.76 25.6 85.76 92.16 158.72 92.16s136.96-66.56 158.72-92.16c-21.76-25.6-85.76-92.16-158.72-92.16S392.96 212.48 371.2 238.08zM826.88 177.92h-3.84c-8.96-2.56-14.08-11.52-11.52-19.2 5.12-16.64 6.4-32 6.4-46.08 0-8.96 7.68-16.64 16.64-16.64s16.64 7.68 16.64 16.64c0 16.64-2.56 34.56-7.68 53.76-2.56 6.4-8.96 11.52-16.64 11.52zM710.4 380.16c-3.84 0-7.68-1.28-10.24-3.84-6.4-6.4-7.68-15.36-1.28-23.04 0-1.28 57.6-69.12 93.44-143.36 3.84-7.68 12.8-11.52 21.76-7.68 7.68 3.84 11.52 12.8 7.68 21.76-37.12 79.36-96 148.48-97.28 151.04-5.12 3.84-8.96 5.12-14.08 5.12zM633.6 646.4c-1.28 0-3.84 0-5.12-1.28-8.96-2.56-12.8-12.8-10.24-20.48 11.52-32 23.04-93.44-25.6-142.08-6.4-6.4-6.4-16.64 0-23.04s16.64-6.4 23.04 0c44.8 44.8 56.32 108.8 33.28 175.36-2.56 6.4-8.96 11.52-15.36 11.52z" fill="#7F0D0D" p-id="1566"></path><path d="M574.72 737.28c-3.84 0-7.68-1.28-11.52-5.12-6.4-6.4-6.4-16.64 0-23.04 7.68-7.68 15.36-16.64 21.76-25.6 5.12-7.68 15.36-8.96 23.04-2.56 7.68 5.12 8.96 15.36 2.56 23.04-7.68 10.24-15.36 19.2-24.32 28.16-3.84 3.84-7.68 5.12-11.52 5.12z" fill="#7F0D0D" p-id="1567"></path></svg>